{
	"asset":{
		"generator":"Khronos glTF Blender I/O v5.1.18",
		"version":"2.0"
	},
	"scene":0,
	"scenes":[
		{
			"name":"Scene",
			"nodes":[
				3,
				4
			]
		}
	],
	"nodes":[
		{
			"mesh":0,
			"name":"Electron",
			"scale":[
				5,
				5,
				5
			],
			"translation":[
				4,
				-0.3499993085861206,
				-1
			]
		},
		{
			"mesh":1,
			"name":"Electron_Orbit",
			"rotation":[
				0.1486915796995163,
				-0.014918922446668148,
				-0.09871239960193634,
				0.9838313460350037
			],
			"scale":[
				5,
				5,
				5
			]
		},
		{
			"mesh":2,
			"name":"Hydrogen_Nucleus",
			"scale":[
				5,
				5,
				5
			]
		},
		{
			"children":[
				0,
				1,
				2
			],
			"name":"Hydrogen_Element",
			"scale":[
				0.20000000298023224,
				0.20000000298023224,
				0.20000000298023224
			]
		},
		{
			"mesh":3,
			"name":"Hydrogen_Info",
			"scale":[
				0.20000000298023224,
				0.5,
				0.20000000298023224
			],
			"translation":[
				1.5,
				0,
				0
			]
		}
	],
	"animations":[
		{
			"channels":[
				{
					"sampler":0,
					"target":{
						"node":3,
						"path":"rotation"
					}
				}
			],
			"name":"Hydrogen_ElementAction.001",
			"samplers":[
				{
					"input":16,
					"interpolation":"LINEAR",
					"output":17
				}
			]
		},
		{
			"channels":[
				{
					"sampler":0,
					"target":{
						"node":0,
						"path":"rotation"
					}
				}
			],
			"name":"ElectronAction.001",
			"samplers":[
				{
					"input":16,
					"interpolation":"LINEAR",
					"output":18
				}
			]
		}
	],
	"materials":[
		{
			"doubleSided":true,
			"name":"Electron_Mat.001",
			"pbrMetallicRoughness":{
				"baseColorFactor":[
					0.8999999761581421,
					0.10000000149011612,
					0.10000000149011612,
					1
				],
				"metallicFactor":0.75,
				"roughnessFactor":0.20000000298023224
			}
		},
		{
			"doubleSided":true,
			"name":"Orbit_Mat.001",
			"pbrMetallicRoughness":{
				"baseColorFactor":[
					0.20000000298023224,
					0.8500000238418579,
					1,
					1
				],
				"metallicFactor":0.30000001192092896,
				"roughnessFactor":0.10000000149011612
			}
		},
		{
			"doubleSided":true,
			"name":"Nucleus_Mat.001",
			"pbrMetallicRoughness":{
				"baseColorFactor":[
					0,
					0.06525728106498718,
					1,
					1
				],
				"roughnessFactor":0.18000000715255737
			}
		}
	],
	"meshes":[
		{
			"name":"Sphere.003",
			"primitives":[
				{
					"attributes":{
						"POSITION":0,
						"NORMAL":1,
						"TEXCOORD_0":2
					},
					"indices":3,
					"material":0
				}
			]
		},
		{
			"name":"Torus.001",
			"primitives":[
				{
					"attributes":{
						"POSITION":4,
						"NORMAL":5,
						"TEXCOORD_0":6
					},
					"indices":7,
					"material":1
				}
			]
		},
		{
			"name":"Sphere.002",
			"primitives":[
				{
					"attributes":{
						"POSITION":8,
						"NORMAL":9,
						"TEXCOORD_0":10
					},
					"indices":11,
					"material":2
				}
			]
		},
		{
			"name":"Text.001",
			"primitives":[
				{
					"attributes":{
						"POSITION":12,
						"NORMAL":13,
						"TEXCOORD_0":14
					},
					"indices":15
				}
			]
		}
	],
	"accessors":[
		{
			"bufferView":0,
			"componentType":5126,
			"count":1984,
			"max":[
				0.07999998331069946,
				0.07999999821186066,
				0.07999996840953827
			],
			"min":[
				-0.07999995350837708,
				-0.07999999821186066,
				-0.07999999821186066
			],
			"type":"VEC3"
		},
		{
			"bufferView":1,
			"componentType":5126,
			"count":1984,
			"type":"VEC3"
		},
		{
			"bufferView":2,
			"componentType":5126,
			"count":1984,
			"type":"VEC2"
		},
		{
			"bufferView":3,
			"componentType":5123,
			"count":2880,
			"type":"SCALAR"
		},
		{
			"bufferView":4,
			"componentType":5126,
			"count":2304,
			"max":[
				0.8299999833106995,
				0.029999999329447746,
				0.8299999833106995
			],
			"min":[
				-0.8299999833106995,
				-0.029999999329447746,
				-0.8299999833106995
			],
			"type":"VEC3"
		},
		{
			"bufferView":5,
			"componentType":5126,
			"count":2304,
			"type":"VEC3"
		},
		{
			"bufferView":6,
			"componentType":5126,
			"count":2304,
			"type":"VEC2"
		},
		{
			"bufferView":7,
			"componentType":5123,
			"count":3456,
			"type":"SCALAR"
		},
		{
			"bufferView":8,
			"componentType":5126,
			"count":1984,
			"max":[
				0.24999992549419403,
				0.25,
				0.24999983608722687
			],
			"min":[
				-0.2499997615814209,
				-0.25,
				-0.25
			],
			"type":"VEC3"
		},
		{
			"bufferView":9,
			"componentType":5126,
			"count":1984,
			"type":"VEC3"
		},
		{
			"bufferView":10,
			"componentType":5126,
			"count":1984,
			"type":"VEC2"
		},
		{
			"bufferView":11,
			"componentType":5123,
			"count":2880,
			"type":"SCALAR"
		},
		{
			"bufferView":12,
			"componentType":5126,
			"count":10516,
			"max":[
				12.439000129699707,
				0,
				7.230000019073486
			],
			"min":[
				0,
				0,
				-0.6910000443458557
			],
			"type":"VEC3"
		},
		{
			"bufferView":13,
			"componentType":5126,
			"count":10516,
			"type":"VEC3"
		},
		{
			"bufferView":14,
			"componentType":5126,
			"count":10516,
			"type":"VEC2"
		},
		{
			"bufferView":15,
			"componentType":5123,
			"count":30996,
			"type":"SCALAR"
		},
		{
			"bufferView":16,
			"componentType":5126,
			"count":350,
			"max":[
				14.583333333333334
			],
			"min":[
				0.041666666666666664
			],
			"type":"SCALAR"
		},
		{
			"bufferView":17,
			"componentType":5126,
			"count":350,
			"type":"VEC4"
		},
		{
			"bufferView":18,
			"componentType":5126,
			"count":350,
			"type":"VEC4"
		}
	],
	"bufferViews":[
		{
			"buffer":0,
			"byteLength":23808,
			"byteOffset":0,
			"target":34962
		},
		{
			"buffer":0,
			"byteLength":23808,
			"byteOffset":23808,
			"target":34962
		},
		{
			"buffer":0,
			"byteLength":15872,
			"byteOffset":47616,
			"target":34962
		},
		{
			"buffer":0,
			"byteLength":5760,
			"byteOffset":63488,
			"target":34963
		},
		{
			"buffer":0,
			"byteLength":27648,
			"byteOffset":69248,
			"target":34962
		},
		{
			"buffer":0,
			"byteLength":27648,
			"byteOffset":96896,
			"target":34962
		},
		{
			"buffer":0,
			"byteLength":18432,
			"byteOffset":124544,
			"target":34962
		},
		{
			"buffer":0,
			"byteLength":6912,
			"byteOffset":142976,
			"target":34963
		},
		{
			"buffer":0,
			"byteLength":23808,
			"byteOffset":149888,
			"target":34962
		},
		{
			"buffer":0,
			"byteLength":23808,
			"byteOffset":173696,
			"target":34962
		},
		{
			"buffer":0,
			"byteLength":15872,
			"byteOffset":197504,
			"target":34962
		},
		{
			"buffer":0,
			"byteLength":5760,
			"byteOffset":213376,
			"target":34963
		},
		{
			"buffer":0,
			"byteLength":126192,
			"byteOffset":219136,
			"target":34962
		},
		{
			"buffer":0,
			"byteLength":126192,
			"byteOffset":345328,
			"target":34962
		},
		{
			"buffer":0,
			"byteLength":84128,
			"byteOffset":471520,
			"target":34962
		},
		{
			"buffer":0,
			"byteLength":61992,
			"byteOffset":555648,
			"target":34963
		},
		{
			"buffer":0,
			"byteLength":1400,
			"byteOffset":617640
		},
		{
			"buffer":0,
			"byteLength":5600,
			"byteOffset":619040
		},
		{
			"buffer":0,
			"byteLength":5600,
			"byteOffset":624640
		}
	],
	"buffers":[
		{
			"byteLength":630240,
			"uri":"hydrogennew.bin"
		}
	]
}
